<?xml version="1.0" encoding="iso-8859-1"?>
<!-- Generator: Adobe Illustrator 18.0.0, SVG Export Plug-In . SVG Version: 6.00 Build 0)  -->
<!DOCTYPE svg PUBLIC "-//W3C//DTD SVG 1.1//EN" "http://www.w3.org/Graphics/SVG/1.1/DTD/svg11.dtd">
<svg version="1.1" id="Capa_1" xmlns="http://www.w3.org/2000/svg" xmlns:xlink="http://www.w3.org/1999/xlink" x="0px" y="0px"
	 viewBox="0 0 54.39 54.39" style="enable-background:new 0 0 54.39 54.39;" xml:space="preserve">
<path d="M52.89,51.218H36.604c0.011-0.012,0.025-0.021,0.035-0.034c4.155-5,5.928-10.051,5.928-16.889
	c0-3.733-0.561-7.592-1.625-11.158c-0.133-0.444-0.463-0.802-0.894-0.97C39.615,22,39.13,22.042,38.731,22.28l-3.969,2.383
	c-0.346,0.208-0.593,0.546-0.687,0.938c-0.094,0.392-0.025,0.806,0.189,1.147l2.682,4.256l-9.52,5.678l4.402-5.021
	c0.273-0.311,0.404-0.72,0.365-1.131c-0.039-0.412-0.246-0.788-0.572-1.042c-1.579-1.228-2.701-2.061-3.514-2.626
	c1.327-1.23,4.06-3.696,9.66-8.624c0.536-0.472,0.665-1.255,0.309-1.874c-1.33-2.312-2.838-4.152-4.49-5.481V7.496
	c1.843-1.009,2.146-2.271,2.146-2.991c0-2.977-4.427-4.333-8.54-4.333c-4.112,0-8.539,1.356-8.539,4.333
	c0,0.72,0.304,1.983,2.146,2.991v3.387c-5.318,4.284-8.979,13.747-8.979,23.413c0,6.838,1.772,11.889,5.928,16.889
	c0.01,0.013,0.024,0.021,0.035,0.034H1.5c-0.828,0-1.5,0.671-1.5,1.5c0,0.829,0.672,1.5,1.5,1.5h51.39c0.828,0,1.5-0.671,1.5-1.5
	C54.39,51.889,53.718,51.218,52.89,51.218z"/>
<g>
</g>
<g>
</g>
<g>
</g>
<g>
</g>
<g>
</g>
<g>
</g>
<g>
</g>
<g>
</g>
<g>
</g>
<g>
</g>
<g>
</g>
<g>
</g>
<g>
</g>
<g>
</g>
<g>
</g>
</svg>
