<svg id="Слой_2" data-name="Слой 2" xmlns="http://www.w3.org/2000/svg" viewBox="0 0 255.89 82.34"><defs><style>.cls-1{fill:#1d1d1b;}</style></defs><title>Logo_Secret_Place_Final</title><path class="cls-1" d="M187.3,128.69a1.75,1.75,0,0,1-.24,1,1.66,1.66,0,0,1-.62.56,3.08,3.08,0,0,1-.74.25,4,4,0,0,1-.62.06,1.53,1.53,0,0,1-1.45-1c-.31-.69-.68-1.43-1.11-2.24a7.5,7.5,0,0,0-1.91-2.25,6.19,6.19,0,0,0-3.92-1,5.74,5.74,0,0,0-2.84.68,6.65,6.65,0,0,0-2.06,1.72,7.13,7.13,0,0,0-1.24,2.32,8.42,8.42,0,0,0-.4,2.5,9,9,0,0,0,.71,3.6,11.61,11.61,0,0,0,2,3.09,23.13,23.13,0,0,0,3.08,2.84q1.78,1.38,3.89,2.93c1.19.86,2.35,1.75,3.48,2.65a22.63,22.63,0,0,1,3,2.9,14.29,14.29,0,0,1,2.13,3.3,9.1,9.1,0,0,1,.8,3.79,5.57,5.57,0,0,1-1.27,3.77,9.27,9.27,0,0,1-3.17,2.37,15.2,15.2,0,0,1-4.23,1.24,31.66,31.66,0,0,1-4.47.34,31.09,31.09,0,0,1-4.57-.37,17.73,17.73,0,0,1-4.44-1.27,10.37,10.37,0,0,1-3.36-2.28,4.76,4.76,0,0,1-1.33-3.43,3.55,3.55,0,0,1,1.27-2.9,8.41,8.41,0,0,1,3.67-1.54c-.09.25-.26.67-.53,1.27a6,6,0,0,0-.4,2.43,3.64,3.64,0,0,0,1.11,2.78,7.51,7.51,0,0,0,2.66,1.6,12.67,12.67,0,0,0,3.17.71c1.09.11,2,.16,2.69.16A10.46,10.46,0,0,0,178,161a12.24,12.24,0,0,0,2.37-.74,6.38,6.38,0,0,0,2-1.32,2.75,2.75,0,0,0,.83-2,3.88,3.88,0,0,0-.59-1.94,11.92,11.92,0,0,0-1.57-2.1,25.31,25.31,0,0,0-2.28-2.18c-.86-.74-1.79-1.48-2.78-2.22q-2.16-1.66-4.25-3.39a34.93,34.93,0,0,1-3.77-3.57,19.15,19.15,0,0,1-2.71-3.85,9,9,0,0,1-1.05-4.22,12.13,12.13,0,0,1,1.26-5.76,11.41,11.41,0,0,1,3.27-3.85,13.52,13.52,0,0,1,4.41-2.16,17.38,17.38,0,0,1,4.69-.68,25.47,25.47,0,0,1,3.61.28,21.74,21.74,0,0,1,3.46.8,8.21,8.21,0,0,1,2.59,1.36,2.46,2.46,0,0,1,1,1.94,2.66,2.66,0,0,1-.59,1.64A2.74,2.74,0,0,0,187.3,128.69Z" transform="translate(-162.44 -100.08)"/><path class="cls-1" d="M209.27,149.91a12.47,12.47,0,0,1-.56,3.45,11.59,11.59,0,0,1-1.73,3.55,10.13,10.13,0,0,1-3,2.75,8.18,8.18,0,0,1-4.35,1.11,8.71,8.71,0,0,1-4.07-.87,7.58,7.58,0,0,1-2.74-2.34,9.49,9.49,0,0,1-1.55-3.49,18.57,18.57,0,0,1-.46-4.22,25.37,25.37,0,0,1,.49-4.75,20.68,20.68,0,0,1,1.55-4.85,12,12,0,0,1,2.65-3.76A5.45,5.45,0,0,1,199.4,135a4.83,4.83,0,0,1,2.09.46,6.08,6.08,0,0,1,1.73,1.2,5.74,5.74,0,0,1,1.17,1.73,6.11,6.11,0,0,1,.5,2l.06.86a12,12,0,0,1-.5,3.24,13.25,13.25,0,0,1-1.41,3.27,9,9,0,0,1-2.29,2.53,5,5,0,0,1-3.08,1,6.14,6.14,0,0,1-.77-.06,8.43,8.43,0,0,1-.9-.19v1.79a3.94,3.94,0,0,0,.28,1.23,6.32,6.32,0,0,0,.83,1.58,5.54,5.54,0,0,0,1.45,1.35,3.85,3.85,0,0,0,2.19.59,5.5,5.5,0,0,0,2.93-.71,6,6,0,0,0,1.88-1.82,8.8,8.8,0,0,0,1.15-2.5c.26-.92.48-1.82.64-2.68a4.56,4.56,0,0,1,.37-1.17.66.66,0,0,1,.62-.31q.93,0,.93,1ZM202,140.35a2.43,2.43,0,0,0-.28-1,1,1,0,0,0-1-.56,2.29,2.29,0,0,0-1.91,1.17,11.25,11.25,0,0,0-1.33,2.69,18.41,18.41,0,0,0-.77,2.9,14.4,14.4,0,0,0-.25,1.82v.18a3.61,3.61,0,0,0,.1.9c.06.22.27.34.64.34h.31a2.76,2.76,0,0,0,2.1-.93,7.15,7.15,0,0,0,1.39-2.22,13.15,13.15,0,0,0,.77-2.65,13.58,13.58,0,0,0,.25-2.22Z" transform="translate(-162.44 -100.08)"/><path class="cls-1" d="M226.11,153.86a11.18,11.18,0,0,1-3.8,5.09,9.53,9.53,0,0,1-5.46,1.57h-.58a3.11,3.11,0,0,1-.59-.06,8.43,8.43,0,0,1-3-1,7.79,7.79,0,0,1-2.47-2.16,11,11,0,0,1-1.66-3.41,15.71,15.71,0,0,1-.62-4.6,22.62,22.62,0,0,1,.65-5.2,11.34,11.34,0,0,1,2.62-4.95,13.42,13.42,0,0,1,4-3.15,10.36,10.36,0,0,1,4.72-1.17,6.26,6.26,0,0,1,2.13.34c.64.23,1,.51,1.08.85a12.36,12.36,0,0,1,.15,1.72q0,1,0,2.7a7.71,7.71,0,0,1-.21,2.1.89.89,0,0,1-.9.68,1.19,1.19,0,0,1-1.05-.78c-.2-.47-.41-1-.61-1.54a7.06,7.06,0,0,0-.81-1.54,1.94,1.94,0,0,0-1.6-.77,3.33,3.33,0,0,0-2.65,1.23,9.15,9.15,0,0,0-1.64,2.9,16.79,16.79,0,0,0-.8,3.33,22.23,22.23,0,0,0-.21,2.59,15.91,15.91,0,0,0,1.07,6.14,4.32,4.32,0,0,0,3.86,2.81l.68.06a4.76,4.76,0,0,0,3.08-1,8.82,8.82,0,0,0,1.89-2.1,15.54,15.54,0,0,0,1.11-2.1c.26-.64.54-1,.83-1h.18q.81.08.81,1.05A4,4,0,0,1,226.11,153.86Z" transform="translate(-162.44 -100.08)"/><path class="cls-1" d="M242.89,150.71a18.7,18.7,0,0,1-.28,2.07,18.21,18.21,0,0,1-1,3.45,11.13,11.13,0,0,1-1.91,3.24,3.81,3.81,0,0,1-3.05,1.42,3.9,3.9,0,0,1-3.15-1.39,9.5,9.5,0,0,1-1.79-3.33,18.69,18.69,0,0,1-.8-4.07c-.12-1.42-.19-2.6-.19-3.55a29.62,29.62,0,0,1,.19-3.24c.12-1.09.2-2.17.25-3.24a.58.58,0,0,0-.5-.61,3.51,3.51,0,0,0-.92-.13c-.5,0-.81.06-.93.19a1,1,0,0,0-.25.43l-.24,2c-.17,1.32-.34,2.59-.53,3.8s-.39,2.28-.61,3.21a9.32,9.32,0,0,1-.81,2.22c-.3.55-.66.83-1.08.83h-.06a.93.93,0,0,1-.46-.12c-.14-.09-.22-.29-.22-.62a3.7,3.7,0,0,1,.13-.74,26.5,26.5,0,0,0,.61-3.58c.09-.94.15-1.79.19-2.53V146c0-.21,0-.45,0-.74s0-.64,0-1.05v-3a11.76,11.76,0,0,0-.12-1.61l-.19-3.64a1,1,0,0,1,.31-.67,3.14,3.14,0,0,1,.8-.56,4.67,4.67,0,0,1,1.05-.37,4.74,4.74,0,0,1,1-.12q1.05,0,1.05,1.35v.31l-.06,1.36v.37c0,.29.06.46.18.52a3.06,3.06,0,0,0,.74.22h.19c.33,0,.86.08,1.6.12a20.94,20.94,0,0,1,2.22.25,7.09,7.09,0,0,1,1.95.59,1.24,1.24,0,0,1,.83,1.14,2.75,2.75,0,0,1-.13.71,8.21,8.21,0,0,1-.3.92c-.13.31-.23.59-.31.84a1.74,1.74,0,0,0-.13.49,35.08,35.08,0,0,0-1.11,8.88c0,.25,0,.7.07,1.36a18.82,18.82,0,0,0,.24,2,7.74,7.74,0,0,0,.56,1.85c.24.53.55.8.92.8a2.05,2.05,0,0,0,1.67-1.14,13.44,13.44,0,0,0,1.29-2.66,23.64,23.64,0,0,0,.9-3.05c.22-1,.38-1.79.46-2.28a1.21,1.21,0,0,1,.4-.84,1.13,1.13,0,0,1,.53-.15c.57,0,.86.37.86,1.11,0,.08,0,.3,0,.65A4.63,4.63,0,0,1,242.89,150.71Z" transform="translate(-162.44 -100.08)"/><path class="cls-1" d="M259.42,149.91a12.11,12.11,0,0,1-.56,3.45,11.34,11.34,0,0,1-1.72,3.55,10.13,10.13,0,0,1-3,2.75,8.23,8.23,0,0,1-4.35,1.11,8.76,8.76,0,0,1-4.08-.87,7.66,7.66,0,0,1-2.74-2.34,9.48,9.48,0,0,1-1.54-3.49,18.56,18.56,0,0,1-.47-4.22,25.44,25.44,0,0,1,.5-4.75,20.66,20.66,0,0,1,1.54-4.85,12.16,12.16,0,0,1,2.65-3.76,5.46,5.46,0,0,1,3.89-1.51,4.88,4.88,0,0,1,2.1.46,6.17,6.17,0,0,1,1.72,1.2,5.59,5.59,0,0,1,1.18,1.73,6.09,6.09,0,0,1,.49,2l.06.86a12,12,0,0,1-.49,3.24,12.91,12.91,0,0,1-1.42,3.27,9.09,9.09,0,0,1-2.28,2.53,5,5,0,0,1-3.09,1,6.28,6.28,0,0,1-.77-.06,7.76,7.76,0,0,1-.89-.19v1.79a4.16,4.16,0,0,0,.27,1.23,6.37,6.37,0,0,0,.84,1.58,5.39,5.39,0,0,0,1.45,1.35,3.81,3.81,0,0,0,2.19.59,5.5,5.5,0,0,0,2.93-.71,6,6,0,0,0,1.88-1.82,9.07,9.07,0,0,0,1.14-2.5c.27-.92.48-1.82.65-2.68a3.87,3.87,0,0,1,.37-1.17.65.65,0,0,1,.62-.31c.61,0,.92.35.92,1Zm-7.28-9.56a2.3,2.3,0,0,0-.28-1,1,1,0,0,0-1-.56,2.31,2.31,0,0,0-1.92,1.17,11.62,11.62,0,0,0-1.32,2.69,18.41,18.41,0,0,0-.77,2.9,12.67,12.67,0,0,0-.25,1.82v.18a3.67,3.67,0,0,0,.09.9c.06.22.28.34.65.34h.31a2.74,2.74,0,0,0,2.09-.93,7.15,7.15,0,0,0,1.39-2.22,13.15,13.15,0,0,0,.77-2.65,12.55,12.55,0,0,0,.25-2.22Z" transform="translate(-162.44 -100.08)"/><path class="cls-1" d="M257.75,148.24q.08-3.13.19-6.41t.25-6.05c0-.33-.33-.55-1-.68s-1.4-.24-2.22-.37a10,10,0,0,1-2.22-.58,1.38,1.38,0,0,1-1-1.33c0-.53.54-.84,1.6-.93s2.66-.12,4.75-.12c.17,0,.28-.25.34-.74a17.1,17.1,0,0,0,.13-1.88c0-.76,0-1.57.06-2.44s.05-1.67.09-2.44a11.87,11.87,0,0,1,.22-1.88c.1-.49.23-.74.4-.74a7.91,7.91,0,0,1,1.11.13,15.81,15.81,0,0,1,1.66.34,7.71,7.71,0,0,1,1.52.52c.43.21.64.43.64.68l-.67,8c0,.25.21.42.64.52a7.93,7.93,0,0,0,1.67.19q1,0,2.16,0a12.42,12.42,0,0,1,2.16.18,4.81,4.81,0,0,1,1.66.59,1.33,1.33,0,0,1,.65,1.2,1.11,1.11,0,0,1-.12.4c-.09.19-.19.28-.31.28a.62.62,0,0,1-.34-.18,2,2,0,0,0-1.14-.19l-1.36.06c-.74,0-1.52.11-2.34.19s-1.58.17-2.26.28-1.05.23-1.14.4a9.25,9.25,0,0,0-.15,1.45c-.06.88-.12,2-.19,3.48s-.11,3.1-.15,5S263,149,263,151.08a21.2,21.2,0,0,0,.12,2.28,13.38,13.38,0,0,0,.37,2,4.65,4.65,0,0,0,.65,1.45,1.17,1.17,0,0,0,1,.55,2.05,2.05,0,0,0,1.48-.68,6.46,6.46,0,0,0,1.23-1.85,18,18,0,0,0,1-2.65c.28-1,.53-2,.74-3a4.1,4.1,0,0,1,.43-1.33.8.8,0,0,1,.74-.4,1.16,1.16,0,0,1,.77.28c.23.18.34.61.34,1.26a3.25,3.25,0,0,1-.06.8c-.12.75-.36,1.76-.71,3.06a22.34,22.34,0,0,1-1.42,3.82,13.35,13.35,0,0,1-2.19,3.3,4,4,0,0,1-3,1.42,4.63,4.63,0,0,1-2.9-.95,7.36,7.36,0,0,1-2.07-2.66,15.38,15.38,0,0,1-1.26-4,26.76,26.76,0,0,1-.44-5Z" transform="translate(-162.44 -100.08)"/><path class="cls-1" d="M344.36,145.66a24.86,24.86,0,0,1-.46,4.9,14.1,14.1,0,0,1-1.37,4,7.79,7.79,0,0,1-2.31,2.71,5.42,5.42,0,0,1-3.26,1,5.81,5.81,0,0,1-2.84-.64A2.38,2.38,0,0,1,333,155.4a1.27,1.27,0,0,1,.46-1.05,1.45,1.45,0,0,1,.83-.37.85.85,0,0,1,.71.28,6.12,6.12,0,0,1,.43.62,3.77,3.77,0,0,0,.5.62,1.23,1.23,0,0,0,.89.27,1.83,1.83,0,0,0,1.64-1,7.92,7.92,0,0,0,.89-2.47,20.69,20.69,0,0,0,.4-3.21c.07-1.15.1-2.22.1-3.21v-2.84c0-.57,0-1.26-.07-2.06a13.64,13.64,0,0,0-.3-2.28,5.82,5.82,0,0,0-.77-1.86,1.64,1.64,0,0,0-1.39-.77c-.87,0-1.62.63-2.26,1.89a19.84,19.84,0,0,0-1.57,4.75,48.1,48.1,0,0,0-.89,6.35c-.19,2.32-.28,4.56-.28,6.69v5.49q.06,1.25.12,2.16c0,.62.1,1.2.16,1.73s.14,1.06.24,1.57.24,1.1.41,1.76c0,.13.19.24.46.34a.59.59,0,0,1,.4.59.93.93,0,0,1-.34.77,2.57,2.57,0,0,1-.86.43,5.75,5.75,0,0,1-1.15.19l-1.11,0h-.86a5.41,5.41,0,0,1-1.48-.22,1,1,0,0,1-.74-1.14V133.32a6.32,6.32,0,0,0-.25-2l-.12-.46c0-.14-.08-.28-.12-.4s.11-.19.34-.31a8,8,0,0,1,.77-.37c.28-.12.56-.22.83-.31a3.33,3.33,0,0,1,.46-.12,2.06,2.06,0,0,1,1.64.68,4.25,4.25,0,0,1,.58,2.65v8.58a14.74,14.74,0,0,0,.71-2.29,14.36,14.36,0,0,1,1-2.8,8,8,0,0,1,1.69-2.41,3.71,3.71,0,0,1,2.7-1,4.22,4.22,0,0,1,3.22,1.33,10.06,10.06,0,0,1,2,3.21,16.78,16.78,0,0,1,1.07,4,26.12,26.12,0,0,1,.31,3.79Z" transform="translate(-162.44 -100.08)"/><path class="cls-1" d="M359.23,155.71a1.83,1.83,0,0,1-.53,1.3,5.22,5.22,0,0,1-1.29,1,6.55,6.55,0,0,1-1.61.65,5.39,5.39,0,0,1-1.38.22,13.38,13.38,0,0,1-2.32-.22,4.66,4.66,0,0,1-2.13-.89,5.9,5.9,0,0,1-1.63-2.56,20.63,20.63,0,0,1-1-4.2c-.22-1.62-.38-3.43-.46-5.43s-.12-4.08-.12-6.26c0-.9,0-1.91.09-3s.13-2.27.22-3.49.18-2.42.3-3.64.25-2.37.37-3.48c.13-.78.27-1.63.44-2.53s.33-1.77.52-2.59a16.47,16.47,0,0,1,.65-2.22,3.9,3.9,0,0,1,.8-1.42,2.43,2.43,0,0,1,1.33-.65,8.47,8.47,0,0,1,1.51-.15,3.36,3.36,0,0,1,2.28.74,4.66,4.66,0,0,1,1.33,2,11.41,11.41,0,0,1,.61,2.9,34.84,34.84,0,0,1,.16,3.49q0,2.83-.19,6.13a56.06,56.06,0,0,1-.77,6.64,43.51,43.51,0,0,1-1.66,6.47,23.54,23.54,0,0,1-2.87,5.74q.06.87.21,2a13,13,0,0,0,.47,2.12,5.52,5.52,0,0,0,.8,1.67,1.53,1.53,0,0,0,1.29.68,1.84,1.84,0,0,0,1.18-.34,5.1,5.1,0,0,0,.77-.77,6.54,6.54,0,0,1,.68-.77,1.18,1.18,0,0,1,.89-.34.87.87,0,0,1,.83.37A1.6,1.6,0,0,1,359.23,155.71Zm-4.63-29c0-.41,0-.91,0-1.48a11.79,11.79,0,0,0-.18-1.7,6.93,6.93,0,0,0-.41-1.42c-.16-.39-.39-.59-.67-.59s-.74.58-1,1.73a35.7,35.7,0,0,0-.59,4.54q-.21,2.8-.31,6.35c-.06,2.37-.09,4.76-.09,7.19v2.19a13.07,13.07,0,0,0,.13,2,35.93,35.93,0,0,0,2.59-9.44A77.6,77.6,0,0,0,354.6,126.72Z" transform="translate(-162.44 -100.08)"/><path class="cls-1" d="M383.41,150.78a8.79,8.79,0,0,1-.61,2,11.68,11.68,0,0,1-1.27,2.25,7.74,7.74,0,0,1-1.79,1.82,3.7,3.7,0,0,1-2.25.74,4.42,4.42,0,0,1-3.24-1.41,6.77,6.77,0,0,1-1.7-4c-.24.65-.53,1.41-.86,2.28a12.33,12.33,0,0,1-1.23,2.4,8.62,8.62,0,0,1-1.7,1.89,3.51,3.51,0,0,1-2.25.77,1.62,1.62,0,0,1-.56-.07l-.4-.15a2.84,2.84,0,0,0-.49-.15,3.15,3.15,0,0,0-.77-.07,3.5,3.5,0,0,1-2.5-.95,6.94,6.94,0,0,1-1.64-2.44,13.87,13.87,0,0,1-.89-3.24,20.61,20.61,0,0,1-.28-3.3,58.26,58.26,0,0,1,.4-7,26.67,26.67,0,0,1,1.33-5.89,11,11,0,0,1,2.41-4.07,4.79,4.79,0,0,1,3.57-1.52,6.45,6.45,0,0,1,1.89.22,11.1,11.1,0,0,1,1.2.49l1.2.59a6.59,6.59,0,0,0,1.82.49,4.48,4.48,0,0,1,1.82,1.76,6.58,6.58,0,0,1,.68,2.19,14,14,0,0,1,.09,2.44,12.26,12.26,0,0,0,.13,2.5s.09.1.27.18l.65.28a2,2,0,0,1,.65.43,1,1,0,0,1,.28.71v.25a10.67,10.67,0,0,0-.74,2.84,27.86,27.86,0,0,0-.13,3c0,.57,0,1.2.09,1.88a15,15,0,0,0,.31,1.91,4.12,4.12,0,0,0,.65,1.48,1.33,1.33,0,0,0,1.11.59,1.7,1.7,0,0,0,1.33-.74,7.06,7.06,0,0,0,1-1.7,15.4,15.4,0,0,0,.68-1.94A10.32,10.32,0,0,0,382,149c.08-.5.29-.74.62-.74a.77.77,0,0,1,.59.34,2,2,0,0,1,.27,1.2v.46A2.86,2.86,0,0,1,383.41,150.78Zm-11.41-10a12.72,12.72,0,0,0-.12-1.6,7.83,7.83,0,0,0-.44-1.73,3.46,3.46,0,0,0-.92-1.36,2.4,2.4,0,0,0-1.67-.55,3.25,3.25,0,0,0-2.8,1.57,12.73,12.73,0,0,0-1.7,3.7,22.11,22.11,0,0,0-.8,4.38c-.13,1.5-.19,2.69-.19,3.55,0,.66,0,1.45.09,2.38a22.79,22.79,0,0,0,.34,2.62,7.83,7.83,0,0,0,.71,2.1,1.38,1.38,0,0,0,1.21.86,3.12,3.12,0,0,0,2.74-1.39,10.2,10.2,0,0,0,1.45-3.45,30.68,30.68,0,0,0,.71-4.45c.14-1.58.28-3,.4-4.35a1.75,1.75,0,0,1,.56-1.32c.28-.19.43-.32.43-.4Z" transform="translate(-162.44 -100.08)"/><path class="cls-1" d="M399.88,152a11.16,11.16,0,0,1-3.79,5.09,9.45,9.45,0,0,1-5.46,1.57H390a3,3,0,0,1-.58-.06,8,8,0,0,1-3-1,7.67,7.67,0,0,1-2.47-2.16,10.9,10.9,0,0,1-1.67-3.4,15.79,15.79,0,0,1-.61-4.61,22.59,22.59,0,0,1,.64-5.2,11.35,11.35,0,0,1,2.62-4.94,13.5,13.5,0,0,1,4.05-3.16,10.33,10.33,0,0,1,4.72-1.17,6.16,6.16,0,0,1,2.12.34c.64.23,1,.52,1.08.85a10.85,10.85,0,0,1,.16,1.72q0,1,0,2.7a7.21,7.21,0,0,1-.22,2.1.87.87,0,0,1-.89.68,1.18,1.18,0,0,1-1.05-.77c-.21-.48-.41-1-.62-1.55a6.62,6.62,0,0,0-.8-1.54,2,2,0,0,0-1.6-.77,3.35,3.35,0,0,0-2.66,1.23,9.13,9.13,0,0,0-1.63,2.9,16.06,16.06,0,0,0-.8,3.34,20.44,20.44,0,0,0-.22,2.59,15.7,15.7,0,0,0,1.08,6.13,4.32,4.32,0,0,0,3.86,2.81l.67.06a4.71,4.71,0,0,0,3.09-1,8.56,8.56,0,0,0,1.88-2.1,15.54,15.54,0,0,0,1.11-2.1c.27-.64.55-1,.83-1h.19c.53,0,.8.39.8,1A3.72,3.72,0,0,1,399.88,152Z" transform="translate(-162.44 -100.08)"/><path class="cls-1" d="M418.33,148a12.6,12.6,0,0,1-.56,3.46,11.62,11.62,0,0,1-1.72,3.54,10.16,10.16,0,0,1-3,2.75,8.18,8.18,0,0,1-4.35,1.11,8.71,8.71,0,0,1-4.07-.87,7.66,7.66,0,0,1-2.74-2.34,9.49,9.49,0,0,1-1.55-3.49,19.15,19.15,0,0,1-.46-4.22,25.52,25.52,0,0,1,.5-4.75,20,20,0,0,1,1.54-4.84,12.09,12.09,0,0,1,2.65-3.77,5.46,5.46,0,0,1,3.89-1.51,4.88,4.88,0,0,1,2.1.46,6,6,0,0,1,1.72,1.21,5.36,5.36,0,0,1,1.17,1.72,5.87,5.87,0,0,1,.5,2l.06.86a12.39,12.39,0,0,1-.49,3.24,13.28,13.28,0,0,1-1.42,3.27,9,9,0,0,1-2.29,2.53,5,5,0,0,1-3.08,1,6.14,6.14,0,0,1-.77-.06,5.33,5.33,0,0,1-.9-.19V151a4.37,4.37,0,0,0,.28,1.24,6.16,6.16,0,0,0,.84,1.57,5.53,5.53,0,0,0,1.44,1.36,3.93,3.93,0,0,0,2.19.58,5.45,5.45,0,0,0,2.94-.71,6.16,6.16,0,0,0,1.88-1.82,9.07,9.07,0,0,0,1.14-2.5c.26-.92.48-1.82.65-2.68a3.87,3.87,0,0,1,.37-1.17.64.64,0,0,1,.61-.31q.93,0,.93,1Zm-7.28-9.56a2.3,2.3,0,0,0-.28-1.05,1,1,0,0,0-1-.56,2.3,2.3,0,0,0-1.91,1.18,11.36,11.36,0,0,0-1.33,2.68,19.57,19.57,0,0,0-.77,2.9,13.72,13.72,0,0,0-.24,1.82v.18a3.67,3.67,0,0,0,.09.9c.06.23.28.34.65.34h.31a2.74,2.74,0,0,0,2.09-.93,6.93,6.93,0,0,0,1.39-2.22,13.15,13.15,0,0,0,.77-2.65,12.55,12.55,0,0,0,.25-2.22Z" transform="translate(-162.44 -100.08)"/><path class="cls-1" d="M327,163.75c-8.92-4.88-19-2-28.25.34-9.93,2.49-20.34,4.29-29.31-1.93-.19-.14-2.29,1.29-2.49,1.41a18,18,0,0,1-2.47,1.45c8.85,6.13,19.09,4.47,28.89,2,9.36-2.32,19.61-5.4,28.67-.45.26.14,2.25-1.27,2.5-1.41a14.1,14.1,0,0,1,2.46-1.45Z" transform="translate(-162.44 -100.08)"/><path class="cls-1" d="M305.67,151.76H290.06l4.23-15.28a7.55,7.55,0,1,1,7.3-.42Z" transform="translate(-162.44 -100.08)"/><path class="cls-1" d="M317.37,138.94a21.44,21.44,0,0,1-2.65,10.2,21,21,0,0,1-2.9,4,22.08,22.08,0,0,1-1.78,1.71c-.31.27-.64.52-1,.77s-2.5,1.48-.45.41a20.92,20.92,0,0,1-27.68-28.88,21.53,21.53,0,0,1,2.91-4,20.54,20.54,0,0,1,1.78-1.71c.31-.27.64-.52,1-.77s2.51-1.48.45-.41a20.91,20.91,0,0,1,30.33,18.68c0-.5,2.76-1.05,2.76-1.59a20.92,20.92,0,0,0-30-18.84c-5.8,2.73-10.75,6.8-13.17,12.87a20.92,20.92,0,0,0,28.6,26.4,28.53,28.53,0,0,0,9.83-7.17,21,21,0,0,0,4.75-13.26C320.12,137.87,317.38,138.38,317.37,138.94Z" transform="translate(-162.44 -100.08)"/><path class="cls-1" d="M261.84,106.48c.44-1.24,2.06-1.24,3-1a131.41,131.41,0,0,0,13.52,2.39,59.75,59.75,0,0,0,15.75-.23,73.83,73.83,0,0,0,9.83-2.42c4.45-1.36,8.69-3.23,13.3-4,7.51-1.28,15.33-.31,22.65,1.62,1,.26,8.59,2.68,10.15,3.64a2,2,0,0,1,.63.52,2.65,2.65,0,0,1,.12,1.78c0,.37.08,3.08.15,6.1a2.78,2.78,0,0,0-1.47.93.31.31,0,0,1-.55-.21c0-2.39,0-5.18-.06-7.71a4.53,4.53,0,0,0-.08-.74c-.3-.64-3.79-1.58-5-1.88-1.46-.38-2.94-.72-4.43-1-8.07-1.55-16.59-1.58-24.39,1.24-6.18,2.24-12.52,4.35-19.09,5a71.87,71.87,0,0,1-19.75-1c-1.75-.31-3.47-.67-5.2-1.06-1.27-.29-4.85-1.11-5.73.3-.42.67-.56,10-.75,10s-4.8-1.6-4.77-1.83A59.13,59.13,0,0,1,261.84,106.48Z" transform="translate(-162.44 -100.08)"/><path class="cls-1" d="M341.54,111.73c.58,1.37,1.37,3.76.26,5.06a5.11,5.11,0,0,1-2.88,1.29,27,27,0,0,1-8.32.15c-.93-.1-1.53-.06-1.94-.68a5.49,5.49,0,0,1-.45-4.64c.4-1.06,1.85-.9,2.76-.93a20.39,20.39,0,0,0,3.49-.3,15.55,15.55,0,0,0,3.21-1.27c.73-.33,1.81-.79,2.59-.32a4,4,0,0,1,1.28,1.64c.35.69,2.74.82,2.45.25a5.93,5.93,0,0,0-5.86-3.23,11.47,11.47,0,0,0-4,1.37c-1.86.84-3.83.67-5.81.82-2.41.17-3.08,1.76-2.85,4,.18,1.75,1,3.38,2.75,3.89a29.46,29.46,0,0,0,10.79.56,10.28,10.28,0,0,0,4.67-1.42c1.88-1.26,1-4.32.3-6C343.7,111.28,341.27,111.1,341.54,111.73Z" transform="translate(-162.44 -100.08)"/><path class="cls-1" d="M289.87,109.8c.34-3.23.42-6.19-2.32-8.36-2.11-1.67-4.95-1.45-7.44-1.17a45.71,45.71,0,0,0-7.25,1.3c-2.33.65-3.07,2.88-2.76,5.08.12.85,3.21,1.32,3.07.3-.24-1.68.27-3.53,2-4.12a30.75,30.75,0,0,1,5-1c1.45-.21,3.63-.84,4.93,0,2.32,1.51,1.83,5,1.58,7.28-.1,1,3,1.49,3.12.66Z" transform="translate(-162.44 -100.08)"/><path class="cls-1" d="M266.75,173.85v.59c1.09.06,2.17.9,2.17,3s-1.08,2.86-2.17,2.94V181h-.64v-.61c-1.07-.09-2.16-.82-2.16-2.9s1.18-2.92,2.17-3v-.59Zm-.63,1.2c-.67,0-1.49.65-1.49,2.35s.73,2.24,1.49,2.33Zm.63,4.68c.74-.07,1.48-.71,1.48-2.34s-.74-2.29-1.48-2.34Z" transform="translate(-162.44 -100.08)"/><path class="cls-1" d="M266.75,181.1h-.64A.14.14,0,0,1,266,181v-.48c-.75-.1-2.16-.61-2.16-3,0-2.1,1.1-3,2.17-3.14v-.45a.15.15,0,0,1,.15-.15h.63a.16.16,0,0,1,.16.15v.45c1.07.12,2.16,1,2.16,3.1,0,2.51-1.52,3-2.17,3.07V181A.15.15,0,0,1,266.75,181.1Zm-.49-.3h.34v-.46a.15.15,0,0,1,.14-.15c.61-.05,2-.4,2-2.79,0-2-1-2.76-2-2.81a.16.16,0,0,1-.15-.15V174h-.33v.44a.15.15,0,0,1-.13.15c-1,.08-2,.87-2,2.85,0,2.25,1.26,2.69,2,2.75a.15.15,0,0,1,.14.15Zm.49-.92a.15.15,0,0,1-.1,0,.13.13,0,0,1,0-.12v-4.68a.15.15,0,0,1,0-.11.17.17,0,0,1,.12,0c.38,0,1.62.28,1.62,2.49s-1.24,2.45-1.62,2.49Zm.15-4.66v4.34c.74-.18,1.18-1,1.18-2.17C268.08,175.72,267.35,175.31,266.9,175.22Zm-.78,4.66h0c-.38,0-1.62-.37-1.62-2.48,0-1.75.84-2.44,1.62-2.5a.15.15,0,0,1,.17.15v4.68a.17.17,0,0,1,0,.12A.19.19,0,0,1,266.12,179.88Zm-.15-4.65c-.6.13-1.19.75-1.19,2.17,0,1.17.44,2,1.19,2.15Z" transform="translate(-162.44 -100.08)"/><path class="cls-1" d="M275.57,177.33c0,2.27-1.07,3.47-2.38,3.47s-2.31-1.35-2.31-3.34,1-3.45,2.39-3.45S275.57,175.38,275.57,177.33Zm-4,.11c0,1.41.6,2.66,1.64,2.66s1.64-1.23,1.64-2.73c0-1.3-.53-2.67-1.64-2.67S271.59,176,271.59,177.44Z" transform="translate(-162.44 -100.08)"/><path class="cls-1" d="M273.19,181c-1.45,0-2.46-1.44-2.46-3.49s1-3.6,2.54-3.6,2.45,1.4,2.45,3.47C275.72,179.83,274.45,181,273.19,181Zm.08-6.79c-1.32,0-2.24,1.36-2.24,3.3s.89,3.19,2.16,3.19,2.23-1.3,2.23-3.32S274.55,174.16,273.27,174.16Zm0,6.1c-1.05,0-1.79-1.16-1.79-2.82,0-1.44.56-2.89,1.79-2.89S275,176,275,177.37C275,179.1,274.3,180.26,273.23,180.26Zm0-5.41c-1,0-1.49,1.3-1.49,2.59s.51,2.51,1.49,2.51,1.49-1.33,1.49-2.58S274.21,174.85,273.23,174.85Z" transform="translate(-162.44 -100.08)"/><path class="cls-1" d="M278.76,174.84H277.2v-.72H281v.72h-1.57v5.85h-.67Z" transform="translate(-162.44 -100.08)"/><path class="cls-1" d="M279.43,180.84h-.67a.15.15,0,0,1-.15-.15V175H277.2a.15.15,0,0,1-.15-.15v-.72a.15.15,0,0,1,.15-.15H281a.15.15,0,0,1,.15.15v.72a.15.15,0,0,1-.15.15h-1.42v5.7A.15.15,0,0,1,279.43,180.84Zm-.51-.3h.36v-5.7a.15.15,0,0,1,.15-.15h1.42v-.42h-3.49v.42h1.4a.15.15,0,0,1,.16.15Z" transform="translate(-162.44 -100.08)"/><path class="cls-1" d="M287.11,177.33c0,2.27-1.07,3.47-2.38,3.47s-2.31-1.35-2.31-3.34,1-3.45,2.38-3.45S287.11,175.38,287.11,177.33Zm-4,.11c0,1.41.59,2.66,1.64,2.66s1.64-1.23,1.64-2.73c0-1.3-.53-2.67-1.64-2.67S283.13,176,283.13,177.44Z" transform="translate(-162.44 -100.08)"/><path class="cls-1" d="M284.73,181c-1.45,0-2.46-1.44-2.46-3.49s1-3.6,2.53-3.6,2.46,1.4,2.46,3.47C287.26,179.83,286,181,284.73,181Zm.07-6.79c-1.31,0-2.23,1.36-2.23,3.3s.89,3.19,2.16,3.19,2.23-1.3,2.23-3.32S286.09,174.16,284.8,174.16Zm0,6.1c-1.06,0-1.79-1.16-1.79-2.82,0-1.44.55-2.89,1.79-2.89s1.79,1.46,1.79,2.82C286.56,179.1,285.84,180.26,284.77,180.26Zm0-5.41c-1,0-1.49,1.3-1.49,2.59s.51,2.51,1.49,2.51,1.49-1.33,1.49-2.58S285.75,174.85,284.77,174.85Z" transform="translate(-162.44 -100.08)"/><path class="cls-1" d="M293,180.48a2.72,2.72,0,0,1-1.35.31c-1.45,0-2.53-1.17-2.53-3.33s1.08-3.45,2.67-3.45a2.22,2.22,0,0,1,1.22.29l-.16.69a2,2,0,0,0-1-.27c-1.21,0-2,1-2,2.71s.72,2.65,2,2.65a2.13,2.13,0,0,0,1.08-.28Z" transform="translate(-162.44 -100.08)"/><path class="cls-1" d="M291.62,180.94c-1.63,0-2.69-1.37-2.69-3.48s1.14-3.6,2.83-3.6a2.29,2.29,0,0,1,1.3.32.14.14,0,0,1,.07.16L293,175a.15.15,0,0,1-.09.1.14.14,0,0,1-.14,0,1.84,1.84,0,0,0-.95-.25c-1.16,0-1.85,1-1.85,2.56s.68,2.49,1.82,2.49a2,2,0,0,0,1-.25.17.17,0,0,1,.14,0,.15.15,0,0,1,.08.11l.14.68a.13.13,0,0,1-.07.15A2.8,2.8,0,0,1,291.62,180.94Zm.14-6.78c-1.51,0-2.52,1.33-2.52,3.3s.91,3.18,2.38,3.18a2.68,2.68,0,0,0,1.18-.24l-.07-.37a2.54,2.54,0,0,1-1,.2c-1.31,0-2.13-1.07-2.13-2.8s.83-2.86,2.16-2.86a2.22,2.22,0,0,1,.93.2l.09-.39A2.17,2.17,0,0,0,291.76,174.16Z" transform="translate(-162.44 -100.08)"/><path class="cls-1" d="M296.46,174.84H294.9v-.72h3.8v.72h-1.57v5.85h-.67Z" transform="translate(-162.44 -100.08)"/><path class="cls-1" d="M297.13,180.84h-.67a.15.15,0,0,1-.15-.15V175H294.9a.15.15,0,0,1-.15-.15v-.72a.15.15,0,0,1,.15-.15h3.8a.15.15,0,0,1,.15.15v.72a.15.15,0,0,1-.15.15h-1.42v5.7A.15.15,0,0,1,297.13,180.84Zm-.52-.3H297v-5.7a.15.15,0,0,1,.15-.15h1.42v-.42h-3.5v.42h1.41a.14.14,0,0,1,.15.15Z" transform="translate(-162.44 -100.08)"/><path class="cls-1" d="M301.19,174.12l1,2.8c.13.39.25.77.37,1.16h0c.1-.35.19-.73.32-1.19l.8-2.77h.7l-1.07,3.37a14.22,14.22,0,0,1-1,2.5,1.41,1.41,0,0,1-1.16.81.94.94,0,0,1-.38-.06l.07-.69a.77.77,0,0,0,.25,0c.53,0,.84-.67,1-1.14a.51.51,0,0,0,0-.4l-1.71-4.42Z" transform="translate(-162.44 -100.08)"/><path class="cls-1" d="M301.22,181a1,1,0,0,1-.44-.08.15.15,0,0,1-.09-.15l.07-.69a.14.14,0,0,1,.07-.11.15.15,0,0,1,.13,0,.53.53,0,0,0,.2,0c.42,0,.7-.56.86-1a.36.36,0,0,0,0-.3l-1.71-4.43a.17.17,0,0,1,0-.14.14.14,0,0,1,.12-.06h.76a.16.16,0,0,1,.14.09l1,2.8c.08.24.15.47.23.7.05-.21.12-.45.19-.71l.8-2.78a.15.15,0,0,1,.14-.1h.7a.13.13,0,0,1,.12.06.16.16,0,0,1,0,.13l-1.08,3.38a14.3,14.3,0,0,1-1,2.52A1.53,1.53,0,0,1,301.22,181Zm-.21-.32.21,0c.39,0,.72-.24,1-.74a13.88,13.88,0,0,0,.94-2.43l1-3.21h-.38l-.77,2.66-.24.89-.08.29a.16.16,0,0,1-.3,0l-.38-1.16-1-2.69h-.43l1.63,4.22a.64.64,0,0,1,0,.51c-.27.79-.66,1.22-1.14,1.23h-.11Z" transform="translate(-162.44 -100.08)"/><path class="cls-1" d="M309.51,174.12V180l.45,0,0,2.25h-.52l0-1.58h-3.23l-.05,1.58h-.52l0-2.25.38,0a8,8,0,0,0,.51-1.45,12.66,12.66,0,0,0,.24-2.77v-1.66Zm-2.25,1.94a11.52,11.52,0,0,1-.26,2.68,7.94,7.94,0,0,1-.42,1.25h2.27v-5.17h-1.59Z" transform="translate(-162.44 -100.08)"/><path class="cls-1" d="M309.91,182.42h-.52a.15.15,0,0,1-.15-.15l0-1.43h-2.94l0,1.43a.15.15,0,0,1-.15.15h-.52a.15.15,0,0,1-.15-.15l0-2.25a.14.14,0,0,1,.14-.15l.29,0a7.39,7.39,0,0,0,.46-1.33,11.9,11.9,0,0,0,.24-2.74v-1.66a.15.15,0,0,1,.15-.15h2.87a.15.15,0,0,1,.15.15v5.73l.3,0a.15.15,0,0,1,.15.15l-.05,2.25A.15.15,0,0,1,309.91,182.42Zm-.37-.3h.22l0-2h-.3a.15.15,0,0,1-.14-.15v-5.73h-2.57v1.51a12.55,12.55,0,0,1-.25,2.81,8.49,8.49,0,0,1-.51,1.47.16.16,0,0,1-.13.09h-.24l0,2h.22l.05-1.43a.14.14,0,0,1,.15-.15h3.23a.15.15,0,0,1,.15.15Zm-.69-2h-2.27a.15.15,0,0,1-.14-.21,6.62,6.62,0,0,0,.41-1.22,11.38,11.38,0,0,0,.26-2.65v-1.24a.15.15,0,0,1,.15-.15h1.59a.15.15,0,0,1,.15.15V180A.15.15,0,0,1,308.85,180.14Zm-2-.3h1.89V175h-1.29v1.09a11.37,11.37,0,0,1-.27,2.72A7.91,7.91,0,0,1,306.81,179.84Z" transform="translate(-162.44 -100.08)"/><path class="cls-1" d="M312.84,174.12v2.77c0,1,0,1.9-.06,2.78h0c.26-.69.58-1.4.95-2.18l1.66-3.38h.67v6.57h-.63v-2.8c0-1.06,0-1.84.06-2.67h0a22,22,0,0,1-1,2.21l-1.61,3.27h-.7v-6.57Z" transform="translate(-162.44 -100.08)"/><path class="cls-1" d="M316.07,180.84h-.63a.15.15,0,0,1-.15-.15v-2.8c0-.72,0-1.3,0-1.83-.2.48-.42,1-.65,1.43l-1.6,3.27a.16.16,0,0,1-.14.08h-.7a.15.15,0,0,1-.15-.15v-6.57a.14.14,0,0,1,.15-.15h.62a.15.15,0,0,1,.15.15v2.77c0,.76,0,1.39,0,2,.18-.41.39-.87.65-1.41l1.66-3.39a.14.14,0,0,1,.13-.08h.67a.15.15,0,0,1,.15.15v6.57A.15.15,0,0,1,316.07,180.84Zm-.48-.3h.33v-6.27h-.42l-1.62,3.3c-.42.88-.72,1.55-.94,2.16a.22.22,0,0,1-.1.09.15.15,0,0,1-.13,0,.2.2,0,0,1-.08-.14c0-.81.06-1.64.06-2.77v-2.62h-.32v6.27h.46l1.56-3.18a20.86,20.86,0,0,0,.95-2.2.14.14,0,0,1,.08-.09.13.13,0,0,1,.12,0,.16.16,0,0,1,.11.16c0,.79-.06,1.54-.06,2.66Z" transform="translate(-162.44 -100.08)"/><path class="cls-1" d="M318.18,180.69a6,6,0,0,0,.2-.6,7.32,7.32,0,0,1,.78-2.2,1,1,0,0,1,.43-.33v0a1.53,1.53,0,0,1-1.14-1.62,2,2,0,0,1,.47-1.34,2,2,0,0,1,1.47-.5,5.66,5.66,0,0,1,1.23.13v6.49H321v-2.85h-.49a.86.86,0,0,0-.74.32,7.72,7.72,0,0,0-.68,2.05c-.05.17-.09.3-.16.48ZM321,174.8a2.47,2.47,0,0,0-.63-.08,1.1,1.1,0,0,0-1.21,1.23,1.19,1.19,0,0,0,1.27,1.25H321Z" transform="translate(-162.44 -100.08)"/><path class="cls-1" d="M321.62,180.84H321a.15.15,0,0,1-.15-.15V178h-.34a.69.69,0,0,0-.62.27,4.33,4.33,0,0,0-.51,1.43c0,.2-.09.39-.14.56l0,.09a2.57,2.57,0,0,1-.15.41.14.14,0,0,1-.13.09h-.71a.17.17,0,0,1-.13-.07.17.17,0,0,1,0-.14,5.47,5.47,0,0,0,.2-.58c.05-.18.1-.38.15-.58a4.82,4.82,0,0,1,.65-1.67,1.52,1.52,0,0,1,.22-.22,1.74,1.74,0,0,1-1-1.67,2,2,0,0,1,.52-1.44,2.11,2.11,0,0,1,1.57-.55,5.36,5.36,0,0,1,1.27.14.16.16,0,0,1,.11.14v6.49A.15.15,0,0,1,321.62,180.84Zm-.51-.3h.36v-6.22a5.92,5.92,0,0,0-1.08-.1,1.85,1.85,0,0,0-1.36.46,1.8,1.8,0,0,0-.43,1.23,1.39,1.39,0,0,0,1,1.47.16.16,0,0,1,.12.15.19.19,0,0,1-.1.17.86.86,0,0,0-.36.28,4.23,4.23,0,0,0-.59,1.56c-.06.21-.11.41-.16.6s-.09.28-.13.4h.39l.09-.29,0-.08c0-.17.09-.36.14-.55a4.55,4.55,0,0,1,.56-1.55,1,1,0,0,1,.86-.38H321a.15.15,0,0,1,.15.15Zm-.72-3.19A1.33,1.33,0,0,1,319,176a1.25,1.25,0,0,1,1.36-1.38,2.65,2.65,0,0,1,.66.08.16.16,0,0,1,.12.15v2.39a.15.15,0,0,1-.14.15Zm-.06-2.48a1,1,0,0,0-1.06,1.08,1,1,0,0,0,1.15,1.1h.39v-2.12A2,2,0,0,0,320.33,174.87Z" transform="translate(-162.44 -100.08)"/></svg>